<svg width="33" height="33" viewBox="0 0 33 33" fill="none" xmlns="http://www.w3.org/2000/svg">
<g id="ph:arrow-right">
<path id="Vector" d="M5.28143 15.3732L14.2516 6.36129C14.4386 6.1734 14.6926 6.0675 14.9577 6.06688C15.2228 6.06627 15.4773 6.17099 15.6652 6.358C15.8531 6.54502 15.959 6.79902 15.9596 7.06412C15.9602 7.32922 15.8555 7.58371 15.6685 7.7716L8.3989 15.0738L27.9657 15.0283C28.2306 15.0277 28.485 15.1324 28.6728 15.3193C28.8606 15.5062 28.9664 15.7601 28.967 16.025C28.9676 16.29 28.863 16.5443 28.6761 16.7321C28.4891 16.9199 28.2353 17.0257 27.9703 17.0263L8.40354 17.0718L15.707 24.3401C15.8949 24.5271 16.0008 24.7811 16.0014 25.0462C16.002 25.3113 15.8973 25.5658 15.7103 25.7537C15.5232 25.9416 15.2692 26.0475 15.0041 26.0481C14.739 26.0487 14.4846 25.944 14.2967 25.757L5.28471 16.7868C5.19161 16.6943 5.11767 16.5843 5.06711 16.4631C5.01656 16.3419 4.99038 16.212 4.99007 16.0807C4.98977 15.9494 5.01534 15.8194 5.06533 15.698C5.11533 15.5766 5.18876 15.4662 5.28143 15.3732Z" fill="black"/>
</g>
</svg>
