<svg width="23" height="23" viewBox="0 0 23 23" fill="none" xmlns="http://www.w3.org/2000/svg">
<g id="teenyicons:book-solid" clip-path="url(#clip0_161_637)">
<path id="Vector" d="M2.29987 0C2.09654 0 1.90153 0.0807736 1.75775 0.224551C1.61398 0.368329 1.5332 0.563334 1.5332 0.766667V20.7C1.5332 20.9033 1.61398 21.0983 1.75775 21.2421C1.90153 21.3859 2.09654 21.4667 2.29987 21.4667H4.59987V0H2.29987Z" fill="#646464"/>
<path id="Vector_2" fill-rule="evenodd" clip-rule="evenodd" d="M6.13379 23H7.66712V21.4667H17.6338C18.6505 21.4667 19.6255 21.0628 20.3444 20.3439C21.0633 19.625 21.4671 18.65 21.4671 17.6333V3.83333C21.4671 2.81667 21.0633 1.84165 20.3444 1.12276C19.6255 0.403868 18.6505 0 17.6338 0L6.13379 0V23ZM16.8671 7.66667H10.7338V6.13333H16.8671V7.66667Z" fill="#646464"/>
</g>
<defs>
<clipPath id="clip0_161_637">
<rect width="23" height="23" fill="white"/>
</clipPath>
</defs>
</svg>
