<svg width="20" height="20" viewBox="0 0 20 20" fill="none" xmlns="http://www.w3.org/2000/svg">
<g clip-path="url(#clip0_130_796)">
<path d="M9.99913 20.0002C15.2152 20.0002 19.4436 15.7718 19.4436 10.5558C19.4436 5.33975 15.2152 1.11133 9.99913 1.11133C4.78311 1.11133 0.554688 5.33975 0.554688 10.5558C0.554688 15.7718 4.78311 20.0002 9.99913 20.0002Z" fill="#F4900C"/>
<path d="M9.99913 18.8889C15.2152 18.8889 19.4436 14.6605 19.4436 9.44444C19.4436 4.22842 15.2152 0 9.99913 0C4.78311 0 0.554688 4.22842 0.554688 9.44444C0.554688 14.6605 4.78311 18.8889 9.99913 18.8889Z" fill="#FFCC4D"/>
<path d="M10.0004 17.7777C14.296 17.7777 17.7782 14.2955 17.7782 9.99995C17.7782 5.7044 14.296 2.22217 10.0004 2.22217C5.70489 2.22217 2.22266 5.7044 2.22266 9.99995C2.22266 14.2955 5.70489 17.7777 10.0004 17.7777Z" fill="#FFE8B6"/>
<path d="M10.0004 17.2221C14.296 17.2221 17.7782 13.7398 17.7782 9.44428C17.7782 5.14873 14.296 1.6665 10.0004 1.6665C5.70489 1.6665 2.22266 5.14873 2.22266 9.44428C2.22266 13.7398 5.70489 17.2221 10.0004 17.2221Z" fill="#FFAC33"/>
<path d="M5.30078 6.0312C5.30078 5.72842 5.598 5.60731 5.598 5.60731L9.97467 3.55176L14.393 5.60731C14.393 5.60731 14.6974 5.67509 14.6974 6.03342V6.38954H5.30078V6.0312Z" fill="#FFE8B6"/>
<path d="M14.4054 7.13117C14.4054 6.80672 14.1248 6.54395 13.7793 6.54395H6.18318C5.83707 6.54395 5.59595 6.80672 5.59595 7.13117C5.59595 7.35172 5.70929 7.54172 5.88984 7.64228V8.01228H7.06429V7.71839H8.23873V8.01228H9.41318V7.71839H10.5876V8.01228H11.7621V7.71839H12.9365V8.01228H14.1115V7.62728C14.2876 7.52283 14.4054 7.34006 14.4054 7.13117ZM15.286 13.3334C15.286 13.4502 15.2395 13.5623 15.1569 13.6449C15.0743 13.7275 14.9622 13.7739 14.8454 13.7739H5.1554C5.03856 13.7739 4.9265 13.7275 4.84388 13.6449C4.76126 13.5623 4.71484 13.4502 4.71484 13.3334C4.71484 13.2165 4.76126 13.1045 4.84388 13.0219C4.9265 12.9392 5.03856 12.8928 5.1554 12.8928H14.846C15.0887 12.8928 15.286 13.0901 15.286 13.3334Z" fill="#F4900C"/>
<path d="M14.6981 6.77778C14.6981 6.85572 14.6671 6.93047 14.612 6.98559C14.5569 7.0407 14.4821 7.07166 14.4042 7.07166H5.59472C5.5199 7.06706 5.44966 7.0341 5.3983 6.97949C5.34695 6.92488 5.31836 6.85274 5.31836 6.77778C5.31836 6.70281 5.34695 6.63067 5.3983 6.57607C5.44966 6.52146 5.5199 6.48849 5.59472 6.48389L14.4042 6.48555C14.4427 6.48541 14.4808 6.49285 14.5164 6.50747C14.552 6.52208 14.5844 6.54357 14.6117 6.57072C14.639 6.59786 14.6607 6.63012 14.6755 6.66565C14.6903 6.70118 14.698 6.73928 14.6981 6.77778ZM6.76972 7.11889H13.2303V7.77778H6.76972V7.11889Z" fill="#F4900C"/>
<path d="M7.06367 11.5717C7.06367 11.8961 6.88812 12.1589 6.67201 12.1589H6.28034C6.06423 12.1589 5.88867 11.8961 5.88867 11.5717V7.11945C5.88867 6.795 6.06423 6.53223 6.28034 6.53223H6.67201C6.88812 6.53223 7.06367 6.795 7.06367 7.11945V11.5717ZM14.1114 11.5717C14.1114 11.8961 13.9364 12.1589 13.7198 12.1589H13.3281C13.112 12.1589 12.9364 11.8961 12.9364 11.5717V7.11945C12.9364 6.795 13.1114 6.53223 13.3281 6.53223H13.7198C13.9359 6.53223 14.1114 6.795 14.1114 7.11945V11.5717ZM9.41312 11.5717C9.41312 11.8961 9.23756 12.1589 9.02145 12.1589H8.62978C8.41367 12.1589 8.23812 11.8961 8.23812 11.5717V7.11945C8.23812 6.795 8.41367 6.53223 8.62978 6.53223H9.02145C9.23756 6.53223 9.41312 6.795 9.41312 7.11945V11.5717ZM11.762 11.5717C11.762 11.8961 11.5864 12.1589 11.3703 12.1589H10.9792C10.7631 12.1589 10.5876 11.8961 10.5876 11.5717V7.11945C10.5876 6.795 10.7631 6.53223 10.9792 6.53223H11.3703C11.5864 6.53223 11.762 6.795 11.762 7.11945V11.5717Z" fill="#FFD983"/>
<path d="M14.4051 11.8651C14.4051 12.1895 14.1424 12.4523 13.8179 12.4523H6.18293C6.02718 12.4523 5.87782 12.3904 5.7677 12.2803C5.65757 12.1702 5.5957 12.0208 5.5957 11.8651C5.5957 11.7093 5.65757 11.56 5.7677 11.4498C5.87782 11.3397 6.02718 11.2778 6.18293 11.2778H13.8179C14.1418 11.2778 14.4051 11.5406 14.4051 11.8651Z" fill="#FFCC4D"/>
<path d="M14.9923 12.452C14.9923 12.7764 14.7295 13.0392 14.405 13.0392H5.59503C5.43929 13.0392 5.28993 12.9773 5.17981 12.8672C5.06968 12.7571 5.00781 12.6077 5.00781 12.452C5.00781 12.2962 5.06968 12.1469 5.17981 12.0367C5.28993 11.9266 5.43929 11.8647 5.59503 11.8647H14.4045C14.7289 11.8647 14.9923 12.1275 14.9923 12.452Z" fill="#FFD983"/>
<path d="M15.286 12.8927C15.286 13.0095 15.2395 13.1216 15.1569 13.2042C15.0743 13.2868 14.9622 13.3333 14.8454 13.3333H5.1554C5.09754 13.3333 5.04026 13.3219 4.98681 13.2997C4.93336 13.2776 4.88479 13.2451 4.84388 13.2042C4.80297 13.1633 4.77052 13.1147 4.74838 13.0613C4.72624 13.0078 4.71484 12.9506 4.71484 12.8927C4.71484 12.8349 4.72624 12.7776 4.74838 12.7241C4.77052 12.6707 4.80297 12.6221 4.84388 12.5812C4.88479 12.5403 4.93336 12.5078 4.98681 12.4857C5.04026 12.4635 5.09754 12.4521 5.1554 12.4521H14.846C15.0887 12.4521 15.286 12.6494 15.286 12.8927Z" fill="#FFD983"/>
<path d="M14.4051 6.8255C14.4051 6.50106 14.1246 6.23828 13.779 6.23828H6.18293C5.83681 6.23828 5.5957 6.50106 5.5957 6.8255C5.5957 7.04606 5.70904 7.23606 5.88959 7.33661V7.70661H7.06404V7.41273H8.23848V7.70661H9.41293V7.41273H10.5874V7.70661H11.7618V7.41273H12.9363V7.70661H14.1113V7.32161C14.2874 7.21717 14.4051 7.03439 14.4051 6.8255Z" fill="#FFCC4D"/>
<path d="M5.30078 6.3686C5.30078 6.06583 5.598 5.94472 5.598 5.94472L9.97467 3.88916L14.393 5.94472C14.393 5.94472 14.6974 6.01249 14.6974 6.37083V6.53249H5.30078V6.3686Z" fill="#FFD983"/>
<path d="M10.0003 4.63525C10.0003 4.63525 6.96976 6.06359 6.66754 6.19248C6.36476 6.32081 6.46587 6.53192 6.6681 6.53192H13.3181C13.6303 6.53192 13.5564 6.29359 13.3087 6.1647C13.0609 6.03636 10.0003 4.63525 10.0003 4.63525Z" fill="#FFAC33"/>
<path d="M14.6981 6.53168C14.6981 6.60963 14.6671 6.68438 14.612 6.73949C14.5569 6.79461 14.4821 6.82557 14.4042 6.82557H5.59472C5.5199 6.82097 5.44966 6.788 5.3983 6.73339C5.34695 6.67878 5.31836 6.60664 5.31836 6.53168C5.31836 6.45672 5.34695 6.38458 5.3983 6.32997C5.44966 6.27536 5.5199 6.2424 5.59472 6.23779L14.4042 6.23946C14.4427 6.23931 14.4808 6.24676 14.5164 6.26137C14.552 6.27599 14.5844 6.29748 14.6117 6.32462C14.639 6.35176 14.6607 6.38402 14.6755 6.41955C14.6903 6.45508 14.698 6.49319 14.6981 6.53168Z" fill="#FFD983"/>
</g>
<defs>
<clipPath id="clip0_130_796">
<rect width="20" height="20" fill="white"/>
</clipPath>
</defs>
</svg>
