<svg width="28" height="28" viewBox="0 0 28 28" fill="none" xmlns="http://www.w3.org/2000/svg">
<g id="foundation:page-filled">
<path id="Vector" d="M6.00784 10.1248H13.2738C13.5415 10.1248 13.758 9.90809 13.758 9.64041V2.37441C13.758 2.24599 13.707 2.12283 13.6162 2.03199C13.5254 1.94116 13.4023 1.89009 13.2738 1.89001H12.7894L5.52344 9.15601V9.64013C5.5234 9.70377 5.5359 9.76679 5.56023 9.82559C5.58456 9.8844 5.62023 9.93783 5.66522 9.98284C5.7102 10.0278 5.76361 10.0636 5.8224 10.0879C5.88119 10.1123 5.9442 10.1248 6.00784 10.1248Z" fill="#646464"/>
<path id="Vector_2" d="M21.993 1.89001H17.0303C16.8046 1.89001 16.617 2.04485 16.563 2.25345H16.5459V12.4877V12.4942C16.5459 12.6226 16.4949 12.7459 16.404 12.8367C16.3132 12.9275 16.19 12.9786 16.0615 12.9786L16.059 12.9783L6.00784 12.9786C5.7634 12.9786 5.56376 13.1597 5.53016 13.3949H5.52344V25.6256C5.52344 25.8933 5.74016 26.11 6.00784 26.11H21.993C22.1215 26.11 22.2447 26.059 22.3356 25.9681C22.4264 25.8773 22.4774 25.7541 22.4774 25.6256V2.37441C22.4774 2.24594 22.4264 2.12273 22.3356 2.03189C22.2447 1.94105 22.1215 1.89001 21.993 1.89001Z" fill="#646464"/>
</g>
</svg>
