<svg width="30" height="30" viewBox="0 0 30 30" fill="none" xmlns="http://www.w3.org/2000/svg">
<g id="basil:filter-solid">
<path id="Vector" d="M23.1544 5.28236C17.7354 4.67671 12.2659 4.67671 6.84689 5.28236C6.54072 5.31641 6.24936 5.43223 6.00338 5.61768C5.75739 5.80314 5.56586 6.05138 5.44888 6.33636C5.33189 6.62134 5.29377 6.93255 5.33851 7.23735C5.38325 7.54214 5.5092 7.82927 5.70314 8.06861L10.4144 13.8924C11.764 15.5607 12.5004 17.6415 12.5006 19.7874V23.7149C12.5005 23.8621 12.5351 24.0073 12.6016 24.1387C12.668 24.2701 12.7645 24.384 12.8831 24.4711L16.3469 27.0111C16.455 27.0904 16.5829 27.1381 16.7164 27.1491C16.85 27.16 16.984 27.1337 17.1035 27.0731C17.223 27.0125 17.3234 26.92 17.3935 26.8057C17.4636 26.6915 17.5007 26.5601 17.5006 26.4261V19.7874C17.501 17.6409 18.2378 15.5596 19.5881 13.8911L24.2981 8.06611C24.4918 7.82676 24.6174 7.53974 24.662 7.23513C24.7065 6.93052 24.6683 6.61953 24.5514 6.33475C24.4344 6.04998 24.243 5.80191 23.9972 5.61653C23.7515 5.43115 23.4603 5.31655 23.1544 5.28236Z" fill="#646464"/>
</g>
</svg>
