<svg width="30" height="30" viewBox="0 0 30 30" fill="none" xmlns="http://www.w3.org/2000/svg">
<g clip-path="url(#clip0_59_175)">
<path d="M9.16732 13.75L8.33398 16.3333H10.0007L9.16732 13.75Z" fill="#646464"/>
<path d="M25.2493 2.5H11.916V6.66667H15.2493V8.33333H4.41602C2.99935 8.33333 1.91602 9.41667 1.91602 10.8333V20C1.91602 21.4167 2.99935 22.5 4.41602 22.5H5.24935V26.75L10.4993 22.5H16.0827V16.6667H25.2493C26.666 16.6667 27.7493 15.5833 27.7493 14.1667V5C27.7493 3.58333 26.666 2.5 25.2493 2.5ZM10.916 19.0833L10.4993 17.75H7.91602L7.41602 19.0833H5.41602L8.16602 11.6667H10.166L12.916 19.0833H10.916ZM23.5827 12.5V14.1667C22.4993 14.1667 21.3327 13.8333 20.3327 13.3333C19.3327 13.8333 18.166 14.0833 16.9993 14.1667L16.916 12.5C17.4993 12.5 18.0827 12.4167 18.666 12.25C17.916 11.5 17.416 10.5833 17.166 9.58333H18.916C19.166 10.3333 19.666 10.9167 20.2493 11.4167C21.166 10.6667 21.7494 9.58333 21.8327 8.33333H16.8327V6.66667H19.3327V5H20.9994V6.66667H23.7494L23.8327 7.5C23.916 9.25 23.2493 11 21.9993 12.25C22.5827 12.4167 23.0827 12.5 23.5827 12.5Z" fill="#646464"/>
</g>
<defs>
<clipPath id="clip0_59_175">
<rect width="30" height="30" fill="white"/>
</clipPath>
</defs>
</svg>
