<svg width="28" height="28" viewBox="0 0 28 28" fill="none" xmlns="http://www.w3.org/2000/svg">
<path d="M23.334 4.6665H4.66732C3.38398 4.6665 2.34565 5.7165 2.34565 6.99984L2.33398 20.9998C2.33398 22.2832 3.38398 23.3332 4.66732 23.3332H23.334C24.6173 23.3332 25.6673 22.2832 25.6673 20.9998V6.99984C25.6673 5.7165 24.6173 4.6665 23.334 4.6665ZM22.8673 9.62484L14.619 14.7815C14.2457 15.0148 13.7557 15.0148 13.3823 14.7815L5.13398 9.62484C5.017 9.55917 4.91456 9.47044 4.83285 9.36403C4.75115 9.25762 4.69189 9.13574 4.65866 9.00577C4.62542 8.87579 4.6189 8.74043 4.6395 8.60786C4.6601 8.4753 4.70738 8.34829 4.77848 8.23452C4.84958 8.12076 4.94303 8.0226 5.05316 7.946C5.1633 7.86939 5.28783 7.81593 5.41923 7.78885C5.55062 7.76177 5.68615 7.76163 5.8176 7.78844C5.94905 7.81525 6.07369 7.86846 6.18398 7.94484L14.0007 12.8332L21.8173 7.94484C21.9276 7.86846 22.0523 7.81525 22.1837 7.78844C22.3152 7.76163 22.4507 7.76177 22.5821 7.78885C22.7135 7.81593 22.838 7.86939 22.9481 7.946C23.0583 8.0226 23.1517 8.12076 23.2228 8.23452C23.2939 8.34829 23.3412 8.4753 23.3618 8.60786C23.3824 8.74043 23.3759 8.87579 23.3426 9.00577C23.3094 9.13574 23.2502 9.25762 23.1684 9.36403C23.0867 9.47044 22.9843 9.55917 22.8673 9.62484Z" fill="#646464"/>
</svg>
