<svg width="28" height="28" viewBox="0 0 28 28" fill="none" xmlns="http://www.w3.org/2000/svg">
<path d="M13.9993 19.8332C14.6182 19.8332 15.2117 19.5873 15.6493 19.1498C16.0868 18.7122 16.3327 18.1187 16.3327 17.4998C16.3327 16.881 16.0868 16.2875 15.6493 15.8499C15.2117 15.4123 14.6182 15.1665 13.9993 15.1665C13.3805 15.1665 12.787 15.4123 12.3494 15.8499C11.9118 16.2875 11.666 16.881 11.666 17.4998C11.666 18.1187 11.9118 18.7122 12.3494 19.1498C12.787 19.5873 13.3805 19.8332 13.9993 19.8332ZM20.9993 9.33317C21.6182 9.33317 22.2117 9.579 22.6493 10.0166C23.0868 10.4542 23.3327 11.0477 23.3327 11.6665V23.3332C23.3327 23.952 23.0868 24.5455 22.6493 24.9831C22.2117 25.4207 21.6182 25.6665 20.9993 25.6665H6.99935C6.38051 25.6665 5.78702 25.4207 5.34943 24.9831C4.91185 24.5455 4.66602 23.952 4.66602 23.3332V11.6665C4.66602 11.0477 4.91185 10.4542 5.34943 10.0166C5.78702 9.579 6.38051 9.33317 6.99935 9.33317H8.16602V6.99984C8.16602 5.45274 8.7806 3.96901 9.87456 2.87505C10.9685 1.78109 12.4523 1.1665 13.9993 1.1665C14.7654 1.1665 15.5239 1.31739 16.2317 1.61054C16.9394 1.90369 17.5825 2.33337 18.1241 2.87505C18.6658 3.41672 19.0955 4.05978 19.3886 4.76752C19.6818 5.47525 19.8327 6.23379 19.8327 6.99984V9.33317H20.9993ZM13.9993 3.49984C13.0711 3.49984 12.1809 3.86859 11.5245 4.52496C10.8681 5.18134 10.4993 6.07158 10.4993 6.99984V9.33317H17.4993V6.99984C17.4993 6.07158 17.1306 5.18134 16.4742 4.52496C15.8178 3.86859 14.9276 3.49984 13.9993 3.49984Z" fill="#646464"/>
</svg>
