<svg width="26" height="26" viewBox="0 0 26 26" fill="none" xmlns="http://www.w3.org/2000/svg">
<path d="M13 13C14.1249 13 15.2245 12.6664 16.1598 12.0415C17.0951 11.4165 17.8241 10.5283 18.2546 9.48901C18.685 8.44976 18.7977 7.30619 18.5782 6.20293C18.3588 5.09966 17.8171 4.08624 17.0217 3.29083C16.2263 2.49542 15.2128 1.95374 14.1096 1.73429C13.0063 1.51483 11.8627 1.62746 10.8235 2.05794C9.78423 2.48841 8.89597 3.21739 8.27102 4.1527C7.64607 5.088 7.3125 6.18762 7.3125 7.3125C7.3125 8.82092 7.91172 10.2676 8.97833 11.3342C10.0449 12.4008 11.4916 13 13 13ZM13 14.625C9.47477 14.625 2.4375 16.8025 2.4375 21.125V24.375H23.5625V21.125C23.5625 16.8025 16.5252 14.625 13 14.625Z" fill="#646464"/>
</svg>
