<svg width="28" height="28" viewBox="0 0 28 28" fill="none" xmlns="http://www.w3.org/2000/svg">
<g id="mdi:like-outline">
<path id="Vector" d="M5.83268 10.4998V24.4998H1.16602V10.4998H5.83268ZM10.4993 24.4998C9.88051 24.4998 9.28702 24.254 8.84943 23.8164C8.41185 23.3788 8.16602 22.7853 8.16602 22.1665V10.4998C8.16602 9.85817 8.42268 9.27484 8.85435 8.85484L16.531 1.1665L17.7677 2.40317C18.0827 2.71817 18.281 3.14984 18.281 3.62817L18.246 4.0015L17.1377 9.33317H24.4993C25.1182 9.33317 25.7117 9.579 26.1493 10.0166C26.5868 10.4542 26.8327 11.0477 26.8327 11.6665V13.9998C26.8327 14.3032 26.7743 14.5832 26.6693 14.8515L23.146 23.0765C22.796 23.9165 21.9677 24.4998 20.9993 24.4998H10.4993ZM10.4993 22.1665H21.0343L24.4993 13.9998V11.6665H14.2443L15.5627 5.45984L10.4993 10.5348V22.1665Z" fill="#4C4C4C"/>
</g>
</svg>
