<svg width="26" height="24" viewBox="0 0 26 24" fill="none" xmlns="http://www.w3.org/2000/svg">
<path d="M4.83268 9.49984V23.4998H0.166016V9.49984H4.83268ZM9.49935 23.4998C8.88051 23.4998 8.28702 23.254 7.84943 22.8164C7.41185 22.3788 7.16602 21.7853 7.16602 21.1665V9.49984C7.16602 8.85817 7.42268 8.27484 7.85435 7.85484L15.531 0.166504L16.7677 1.40317C17.0827 1.71817 17.281 2.14984 17.281 2.62817L17.246 3.0015L16.1377 8.33317H23.4993C24.1182 8.33317 24.7117 8.579 25.1493 9.01659C25.5868 9.45417 25.8327 10.0477 25.8327 10.6665V12.9998C25.8327 13.3032 25.7743 13.5832 25.6693 13.8515L22.146 22.0765C21.796 22.9165 20.9677 23.4998 19.9993 23.4998H9.49935ZM9.49935 21.1665H20.0343L23.4993 12.9998V10.6665H13.2443L14.5627 4.45984L9.49935 9.53484V21.1665Z" fill="#FB166B"/>
</svg>
