<svg width="117" height="23" viewBox="0 0 117 23" fill="none" xmlns="http://www.w3.org/2000/svg">
<g filter="url(#filter0_d_59_107)">
<path d="M4.052 5.4H5.384V16.848H12.44V18H4.052V5.4ZM14.3816 8.532H15.6596V18H14.3816V8.532ZM15.0296 6.462C14.7656 6.462 14.5436 6.372 14.3636 6.192C14.1836 6.012 14.0936 5.796 14.0936 5.544C14.0936 5.304 14.1836 5.094 14.3636 4.914C14.5436 4.734 14.7656 4.644 15.0296 4.644C15.2936 4.644 15.5156 4.734 15.6956 4.914C15.8756 5.082 15.9656 5.286 15.9656 5.526C15.9656 5.79 15.8756 6.012 15.6956 6.192C15.5156 6.372 15.2936 6.462 15.0296 6.462ZM27.1716 8.532L22.9596 18H21.6456L17.4516 8.532H18.7836L22.3296 16.596L25.9116 8.532H27.1716ZM36.9518 13.662H29.0318C29.1038 14.646 29.4818 15.444 30.1658 16.056C30.8498 16.656 31.7138 16.956 32.7578 16.956C33.3458 16.956 33.8858 16.854 34.3778 16.65C34.8698 16.434 35.2958 16.122 35.6558 15.714L36.3758 16.542C35.9558 17.046 35.4278 17.43 34.7918 17.694C34.1678 17.958 33.4778 18.09 32.7218 18.09C31.7498 18.09 30.8858 17.886 30.1298 17.478C29.3858 17.058 28.8038 16.482 28.3838 15.75C27.9638 15.018 27.7538 14.19 27.7538 13.266C27.7538 12.342 27.9518 11.514 28.3478 10.782C28.7558 10.05 29.3078 9.48 30.0038 9.072C30.7118 8.664 31.5038 8.46 32.3798 8.46C33.2558 8.46 34.0418 8.664 34.7378 9.072C35.4338 9.48 35.9798 10.05 36.3758 10.782C36.7718 11.502 36.9698 12.33 36.9698 13.266L36.9518 13.662ZM32.3798 9.558C31.4678 9.558 30.6998 9.852 30.0758 10.44C29.4638 11.016 29.1158 11.772 29.0318 12.708H35.7458C35.6618 11.772 35.3078 11.016 34.6838 10.44C34.0718 9.852 33.3038 9.558 32.3798 9.558ZM47 6.552H42.572V5.4H52.76V6.552H48.332V18H47V6.552ZM57.4026 8.46C58.6386 8.46 59.5866 8.772 60.2466 9.396C60.9066 10.008 61.2366 10.92 61.2366 12.132V18H60.0126V16.524C59.7246 17.016 59.2986 17.4 58.7346 17.676C58.1826 17.952 57.5226 18.09 56.7546 18.09C55.6986 18.09 54.8586 17.838 54.2346 17.334C53.6106 16.83 53.2986 16.164 53.2986 15.336C53.2986 14.532 53.5866 13.884 54.1626 13.392C54.7506 12.9 55.6806 12.654 56.9526 12.654H59.9586V12.078C59.9586 11.262 59.7306 10.644 59.2746 10.224C58.8186 9.792 58.1526 9.576 57.2766 9.576C56.6766 9.576 56.1006 9.678 55.5486 9.882C54.9966 10.074 54.5226 10.344 54.1266 10.692L53.5506 9.738C54.0306 9.33 54.6066 9.018 55.2786 8.802C55.9506 8.574 56.6586 8.46 57.4026 8.46ZM56.9526 17.082C57.6726 17.082 58.2906 16.92 58.8066 16.596C59.3226 16.26 59.7066 15.78 59.9586 15.156V13.608H56.9886C55.3686 13.608 54.5586 14.172 54.5586 15.3C54.5586 15.852 54.7686 16.29 55.1886 16.614C55.6086 16.926 56.1966 17.082 56.9526 17.082ZM67.2458 18.09C66.4778 18.09 65.7398 17.982 65.0318 17.766C64.3358 17.538 63.7898 17.256 63.3938 16.92L63.9698 15.912C64.3658 16.224 64.8638 16.482 65.4638 16.686C66.0638 16.878 66.6878 16.974 67.3358 16.974C68.1998 16.974 68.8358 16.842 69.2438 16.578C69.6638 16.302 69.8738 15.918 69.8738 15.426C69.8738 15.078 69.7598 14.808 69.5318 14.616C69.3038 14.412 69.0158 14.262 68.6678 14.166C68.3198 14.058 67.8578 13.956 67.2818 13.86C66.5138 13.716 65.8958 13.572 65.4278 13.428C64.9598 13.272 64.5578 13.014 64.2218 12.654C63.8978 12.294 63.7358 11.796 63.7358 11.16C63.7358 10.368 64.0658 9.72 64.7258 9.216C65.3858 8.712 66.3038 8.46 67.4798 8.46C68.0918 8.46 68.7038 8.544 69.3158 8.712C69.9278 8.868 70.4318 9.078 70.8278 9.342L70.2698 10.368C69.4898 9.828 68.5598 9.558 67.4798 9.558C66.6638 9.558 66.0458 9.702 65.6258 9.99C65.2178 10.278 65.0138 10.656 65.0138 11.124C65.0138 11.484 65.1278 11.772 65.3558 11.988C65.5958 12.204 65.8898 12.366 66.2378 12.474C66.5858 12.57 67.0658 12.672 67.6778 12.78C68.4338 12.924 69.0398 13.068 69.4958 13.212C69.9518 13.356 70.3418 13.602 70.6658 13.95C70.9898 14.298 71.1518 14.778 71.1518 15.39C71.1518 16.218 70.8038 16.878 70.1078 17.37C69.4238 17.85 68.4698 18.09 67.2458 18.09ZM77.0244 13.248L74.7924 15.3V18H73.5144V4.644H74.7924V13.698L80.4444 8.532H82.0284L77.9784 12.402L82.4064 18H80.8404L77.0244 13.248Z" fill="black"/>
<path d="M106.63 14.634H99.6098L98.0978 18H96.7118L102.472 5.4H103.786L109.546 18H108.142L106.63 14.634ZM106.144 13.554L103.12 6.786L100.096 13.554H106.144ZM111.63 5.4H112.962V18H111.63V5.4Z" fill="white"/>
</g>
<defs>
<filter id="filter0_d_59_107" x="0.0527344" y="0.644043" width="116.91" height="21.4458" filterUnits="userSpaceOnUse" color-interpolation-filters="sRGB">
<feFlood flood-opacity="0" result="BackgroundImageFix"/>
<feColorMatrix in="SourceAlpha" type="matrix" values="0 0 0 0 0 0 0 0 0 0 0 0 0 0 0 0 0 0 127 0" result="hardAlpha"/>
<feOffset/>
<feGaussianBlur stdDeviation="2"/>
<feComposite in2="hardAlpha" operator="out"/>
<feColorMatrix type="matrix" values="0 0 0 0 0 0 0 0 0 0 0 0 0 0 0 0 0 0 0.34 0"/>
<feBlend mode="normal" in2="BackgroundImageFix" result="effect1_dropShadow_59_107"/>
<feBlend mode="normal" in="SourceGraphic" in2="effect1_dropShadow_59_107" result="shape"/>
</filter>
</defs>
</svg>
