<svg width="136" height="27" viewBox="0 0 136 27" fill="none" xmlns="http://www.w3.org/2000/svg">
<g filter="url(#filter0_d_367_90)">
<path d="M4.622 22V5.9H6.324V20.528H15.34V22H4.622ZM18.6489 7.257C17.9819 7.257 17.4529 6.728 17.4529 6.084C17.4529 5.463 17.9819 4.934 18.6489 4.934C19.3159 4.934 19.8449 5.44 19.8449 6.061C19.8449 6.728 19.3389 7.257 18.6489 7.257ZM17.8209 22V9.902H19.4539V22H17.8209ZM32.5537 9.902H34.1637L28.7817 22H27.1027L21.7437 9.902H23.4457L27.9767 20.206L32.5537 9.902ZM46.6836 15.951C46.6836 16.089 46.6606 16.273 46.6606 16.457H36.5406C36.7246 18.987 38.6566 20.666 41.3016 20.666C42.7736 20.666 44.0846 20.137 45.0046 19.079L45.9246 20.137C44.8436 21.425 43.1646 22.115 41.2556 22.115C37.4836 22.115 34.9076 19.539 34.9076 15.951C34.9076 12.363 37.4146 9.81 40.8186 9.81C44.2226 9.81 46.6836 12.317 46.6836 15.951ZM40.8186 11.213C38.4726 11.213 36.7476 12.869 36.5406 15.238H45.1196C44.9126 12.869 43.1876 11.213 40.8186 11.213ZM59.5 22V7.372H53.842V5.9H66.86V7.372H61.202V22H59.5ZM72.7922 9.81C75.9202 9.81 77.6912 11.374 77.6912 14.502V22H76.1272V20.114C75.3912 21.356 73.9652 22.115 71.9642 22.115C69.2272 22.115 67.5482 20.689 67.5482 18.596C67.5482 16.733 68.7442 15.169 72.2172 15.169H76.0582V14.433C76.0582 12.363 74.8852 11.236 72.6312 11.236C71.0672 11.236 69.5952 11.788 68.6062 12.662L67.8702 11.443C69.0892 10.408 70.8832 9.81 72.7922 9.81ZM72.2172 20.827C74.0572 20.827 75.4142 19.953 76.0582 18.366V16.388H72.2632C69.9172 16.388 69.1582 17.308 69.1582 18.55C69.1582 19.953 70.2852 20.827 72.2172 20.827ZM85.3696 22.115C83.3686 22.115 81.4366 21.471 80.4476 20.62L81.1836 19.332C82.1496 20.091 83.7826 20.689 85.4846 20.689C87.7846 20.689 88.7276 19.907 88.7276 18.711C88.7276 15.56 80.8846 18.044 80.8846 13.26C80.8846 11.282 82.5866 9.81 85.6686 9.81C87.2326 9.81 88.9346 10.247 89.9466 10.937L89.2336 12.248C88.1756 11.512 86.9106 11.213 85.6686 11.213C83.4836 11.213 82.5176 12.064 82.5176 13.214C82.5176 16.48 90.3606 14.019 90.3606 18.665C90.3606 20.758 88.5206 22.115 85.3696 22.115ZM102.741 22L97.8645 15.928L95.0125 18.55V22H93.3795V4.934H95.0125V16.503L102.235 9.902H104.259L99.0835 14.847L104.742 22H102.741ZM125.587 22L123.655 17.699H114.685L112.753 22H110.982L118.342 5.9H120.021L127.381 22H125.587ZM115.306 16.319H123.034L119.17 7.671L115.306 16.319ZM130.044 22V5.9H131.746V22H130.044Z" fill="black"/>
</g>
<defs>
<filter id="filter0_d_367_90" x="0.621094" y="0.934082" width="135.125" height="25.1812" filterUnits="userSpaceOnUse" color-interpolation-filters="sRGB">
<feFlood flood-opacity="0" result="BackgroundImageFix"/>
<feColorMatrix in="SourceAlpha" type="matrix" values="0 0 0 0 0 0 0 0 0 0 0 0 0 0 0 0 0 0 127 0" result="hardAlpha"/>
<feOffset/>
<feGaussianBlur stdDeviation="2"/>
<feComposite in2="hardAlpha" operator="out"/>
<feColorMatrix type="matrix" values="0 0 0 0 0 0 0 0 0 0 0 0 0 0 0 0 0 0 0.34 0"/>
<feBlend mode="normal" in2="BackgroundImageFix" result="effect1_dropShadow_367_90"/>
<feBlend mode="normal" in="SourceGraphic" in2="effect1_dropShadow_367_90" result="shape"/>
</filter>
</defs>
</svg>
