<svg width="26" height="26" viewBox="0 0 26 26" fill="none" xmlns="http://www.w3.org/2000/svg">
<g id="ic:baseline-delete">
<path id="Vector" d="M12.5 2C15.2848 2 17.9555 3.15893 19.9246 5.22183C21.8938 7.28473 23 10.0826 23 13C23 15.9174 21.8938 18.7153 19.9246 20.7782C17.9555 22.8411 15.2848 24 12.5 24C9.71523 24 7.04451 22.8411 5.07538 20.7782C3.10625 18.7153 2 15.9174 2 13C2 10.0826 3.10625 7.28473 5.07538 5.22183C7.04451 3.15893 9.71523 2 12.5 2ZM7.25 13C7.25 13.2501 7.34482 13.4899 7.5136 13.6667C7.68239 13.8435 7.9113 13.9429 8.15 13.9429H16.85C17.0887 13.9429 17.3176 13.8435 17.4864 13.6667C17.6552 13.4899 17.75 13.2501 17.75 13C17.75 12.7499 17.6552 12.5101 17.4864 12.3333C17.3176 12.1565 17.0887 12.0571 16.85 12.0571H8.15C8.03181 12.0571 7.91478 12.0815 7.80558 12.1289C7.69639 12.1763 7.59718 12.2457 7.5136 12.3333C7.43003 12.4209 7.36374 12.5248 7.31851 12.6392C7.27328 12.7536 7.25 12.8762 7.25 13Z" fill="#646464"/>
</g>
</svg>
