<svg width="14" height="14" viewBox="0 0 14 14" fill="none" xmlns="http://www.w3.org/2000/svg">
<g id="zondicons:minus-solid" clip-path="url(#clip0_161_823)">
<path id="Vector" d="M7 14C5.14348 14 3.36301 13.2625 2.05025 11.9497C0.737498 10.637 0 8.85651 0 7C0 5.14348 0.737498 3.36301 2.05025 2.05025C3.36301 0.737498 5.14348 0 7 0C8.85651 0 10.637 0.737498 11.9497 2.05025C13.2625 3.36301 14 5.14348 14 7C14 8.85651 13.2625 10.637 11.9497 11.9497C10.637 13.2625 8.85651 14 7 14ZM10.5 6.3H3.5V7.7H10.5V6.3Z" fill="black"/>
</g>
<defs>
<clipPath id="clip0_161_823">
<rect width="14" height="14" fill="white"/>
</clipPath>
</defs>
</svg>
