<svg width="13" height="13" viewBox="0 0 13 13" fill="none" xmlns="http://www.w3.org/2000/svg">
<path id="Vector" d="M6.5 0C4.78253 0.0207208 3.14124 0.712193 1.92672 1.92672C0.712193 3.14124 0.0207208 4.78253 0 6.5C0.0207208 8.21747 0.712193 9.85876 1.92672 11.0733C3.14124 12.2878 4.78253 12.9793 6.5 13C8.21747 12.9793 9.85876 12.2878 11.0733 11.0733C12.2878 9.85876 12.9793 8.21747 13 6.5C12.9793 4.78253 12.2878 3.14124 11.0733 1.92672C9.85876 0.712193 8.21747 0.0207208 6.5 0ZM10.2143 6.96429H6.96429V10.2143H6.03571V6.96429H2.78571V6.03571H6.03571V2.78571H6.96429V6.03571H10.2143V6.96429Z" fill="white"/>
</svg>
