<svg width="68" height="68" viewBox="0 0 68 68" fill="none" xmlns="http://www.w3.org/2000/svg">
<path d="M34 4.25C41.8902 4.25 49.4572 7.38437 55.0364 12.9636C60.6156 18.5428 63.75 26.1098 63.75 34C63.75 41.8902 60.6156 49.4572 55.0364 55.0364C49.4572 60.6156 41.8902 63.75 34 63.75C26.1098 63.75 18.5428 60.6156 12.9636 55.0364C7.38437 49.4572 4.25 41.8902 4.25 34C4.25 26.1098 7.38437 18.5428 12.9636 12.9636C18.5428 7.38437 26.1098 4.25 34 4.25ZM30.294 39.8692L23.6852 33.2562C23.4483 33.0193 23.1671 32.8314 22.8575 32.7032C22.548 32.575 22.2162 32.509 21.8811 32.509C21.5461 32.509 21.2143 32.575 20.9047 32.7032C20.5952 32.8314 20.3139 33.0193 20.077 33.2562C19.5985 33.7347 19.3297 34.3837 19.3297 35.0604C19.3297 35.7371 19.5985 36.386 20.077 36.8645L28.492 45.2795C28.7283 45.5176 29.0093 45.7066 29.3189 45.8356C29.6286 45.9645 29.9607 46.0309 30.2961 46.0309C30.6316 46.0309 30.9637 45.9645 31.2733 45.8356C31.5829 45.7066 31.864 45.5176 32.1003 45.2795L49.5252 27.8503C49.7653 27.6143 49.9563 27.3332 50.0872 27.0231C50.2181 26.7129 50.2863 26.38 50.2879 26.0433C50.2894 25.7067 50.2243 25.3731 50.0963 25.0618C49.9683 24.7505 49.78 24.4676 49.5421 24.2294C49.3042 23.9913 49.0215 23.8026 48.7104 23.6742C48.3992 23.5458 48.0657 23.4803 47.729 23.4815C47.3924 23.4827 47.0594 23.5505 46.7491 23.681C46.4388 23.8115 46.1575 24.0022 45.9212 24.242L30.294 39.8692Z" fill="#F4F4F4"/>
</svg>
