<svg width="20" height="25" viewBox="0 0 20 25" fill="none" xmlns="http://www.w3.org/2000/svg">
<g id="Group 597">
<path id="Vector" d="M14.2701 1L19.165 4.89232L14.2701 8.78464V6.83848H10.024C6.07269 6.77951 4.6573 11.2616 8.78552 13.0898L10.9086 14.0924C11.2624 14.2103 11.4394 14.6231 10.7907 14.5641H4.1855C-0.827335 11.6744 0.470105 3.00513 9.19834 2.94616H14.2701V1Z" fill="#646464" stroke="#646464" stroke-linecap="round" stroke-linejoin="round"/>
<path id="Vector_2" d="M6.13122 24.0001L1.23633 20.1077L6.13122 16.2154V18.1616H10.3774C14.3287 18.2205 15.7441 13.7385 11.6158 11.9103L9.49276 10.9077C9.13892 10.7898 8.96199 10.3769 9.61071 10.4359H16.1569C21.1697 13.2667 19.8723 21.877 11.1441 21.9949H6.07224L6.13122 24.0001Z" fill="#646464" stroke="#646464" stroke-linecap="round" stroke-linejoin="round"/>
</g>
</svg>
