<svg width="17" height="22" viewBox="0 0 17 22" fill="none" xmlns="http://www.w3.org/2000/svg">
<path id="Vector" d="M2.125 22C1.54063 22 1.04019 21.7844 0.623689 21.3532C0.207189 20.922 -0.000706529 20.4043 1.80391e-06 19.8V2.2C1.80391e-06 1.595 0.208252 1.0769 0.624751 0.645702C1.04125 0.214502 1.54133 -0.000731466 2.125 1.86757e-06H14.875C15.4594 1.86757e-06 15.9598 0.215602 16.3763 0.646802C16.7928 1.078 17.0007 1.59573 17 2.2V19.8C17 20.405 16.7917 20.9231 16.3752 21.3543C15.9587 21.7855 15.4587 22.0007 14.875 22H2.125ZM7.4375 9.9L10.0938 8.25L12.75 9.9V2.2H7.4375V9.9Z" fill="#646464"/>
</svg>
