<svg width="18" height="22" viewBox="0 0 18 22" fill="none" xmlns="http://www.w3.org/2000/svg">
<path id="Vector" fill-rule="evenodd" clip-rule="evenodd" d="M4.03465 1.08334C3.73641 1.76669 3.58297 2.50441 3.58398 3.25C3.58398 3.82464 3.81226 4.37574 4.21859 4.78207C4.62492 5.1884 5.17602 5.41667 5.75065 5.41667H12.2507C12.8253 5.41667 13.3764 5.1884 13.7827 4.78207C14.189 4.37574 14.4173 3.82464 14.4173 3.25C14.4173 2.47975 14.257 1.74634 13.9667 1.08334H15.5007C16.0753 1.08334 16.6264 1.31161 17.0327 1.71794C17.439 2.12427 17.6673 2.67537 17.6673 3.25V19.5C17.6673 20.0746 17.439 20.6257 17.0327 21.0321C16.6264 21.4384 16.0753 21.6667 15.5007 21.6667H2.50065C1.92602 21.6667 1.37492 21.4384 0.968586 21.0321C0.562257 20.6257 0.333984 20.0746 0.333984 19.5V3.25C0.333984 2.67537 0.562257 2.12427 0.968586 1.71794C1.37492 1.31161 1.92602 1.08334 2.50065 1.08334H4.03465ZM9.00065 13H5.75065C5.46333 13 5.18778 13.1141 4.98462 13.3173C4.78145 13.5205 4.66732 13.796 4.66732 14.0833C4.66732 14.3707 4.78145 14.6462 4.98462 14.8494C5.18778 15.0525 5.46333 15.1667 5.75065 15.1667H9.00065C9.28797 15.1667 9.56352 15.0525 9.76668 14.8494C9.96985 14.6462 10.084 14.3707 10.084 14.0833C10.084 13.796 9.96985 13.5205 9.76668 13.3173C9.56352 13.1141 9.28797 13 9.00065 13ZM12.2507 8.66667H5.75065C5.47453 8.66698 5.20895 8.7727 5.00817 8.96225C4.80739 9.1518 4.68656 9.41087 4.67038 9.68651C4.6542 9.96216 4.74388 10.2336 4.9211 10.4453C5.09833 10.6571 5.34971 10.7931 5.6239 10.8258L5.75065 10.8333H12.2507C12.538 10.8333 12.8135 10.7192 13.0167 10.516C13.2198 10.3129 13.334 10.0373 13.334 9.75C13.334 9.46268 13.2198 9.18713 13.0167 8.98397C12.8135 8.78081 12.538 8.66667 12.2507 8.66667ZM9.00065 3.51684e-06C9.45801 -0.000670403 9.91033 0.0955186 10.3278 0.28224C10.7454 0.468962 11.1186 0.741984 11.423 1.08334C11.8867 1.60117 12.1857 2.26742 12.2409 3.003L12.2507 3.25H5.75065C5.75065 2.46459 6.02907 1.74417 6.49273 1.183L6.57832 1.08334C7.17415 0.41817 8.03865 3.51684e-06 9.00065 3.51684e-06Z" fill="#646464"/>
</svg>
