<svg width="19" height="23" viewBox="0 0 19 23" fill="none" xmlns="http://www.w3.org/2000/svg">
<g id="Group 597">
<path id="Vector" d="M13.2701 0L18.165 3.89232L13.2701 7.78464V5.83848H9.02398C5.07269 5.77951 3.6573 10.2616 7.78552 12.0898L9.9086 13.0924C10.2624 13.2103 10.4394 13.6231 9.79065 13.5641H3.1855C-1.82733 10.6744 -0.529895 2.00513 8.19834 1.94616H13.2701V0Z" fill="white"/>
<path id="Vector_2" d="M5.13122 23.0001L0.236328 19.1077L5.13122 15.2154V17.1616H9.37738C13.3287 17.2205 14.7441 12.7385 10.6158 10.9103L8.49276 9.9077C8.13892 9.78975 7.96199 9.37693 8.61071 9.43591H15.1569C20.1697 12.2667 18.8723 20.877 10.1441 20.9949H5.07224L5.13122 23.0001Z" fill="white"/>
</g>
</svg>
